<svg width="18" height="14" viewBox="0 0 18 14" fill="none" xmlns="http://www.w3.org/2000/svg">
<path d="M5 1.55274C5 0.862379 5.55964 0.302734 6.25 0.302734H16.75C17.4403 0.302734 18 0.862378 18 1.55273V1.68431C18 2.37466 17.4403 2.93431 16.75 2.93431H6.25C5.55964 2.93431 5 2.37466 5 1.68431V1.55274Z" fill="white"/>
<path d="M5 6.81592C5 6.12556 5.55964 5.56592 6.25 5.56592H16.75C17.4403 5.56592 18 6.12556 18 6.81592V6.94749C18 7.63785 17.4403 8.19749 16.75 8.19749H6.25C5.55964 8.19749 5 7.63785 5 6.94749V6.81592Z" fill="white"/>
<path d="M0 12.0791C0 11.3887 0.559644 10.8291 1.25 10.8291H16.75C17.4403 10.8291 18 11.3887 18 12.0791V12.2107C18 12.901 17.4403 13.4607 16.75 13.4607H1.25C0.559645 13.4607 0 12.901 0 12.2107V12.0791Z" fill="white"/>
</svg>
