<svg width="64" height="17" viewBox="0 0 64 17" fill="none" xmlns="http://www.w3.org/2000/svg">
<path d="M8.11202 3.52077C9.52642 3.77037 9.98402 4.41517 9.98402 5.33037C9.98402 6.05837 9.67202 7.20238 8.98562 8.30478C8.65282 8.26318 8.29922 8.24237 7.98722 8.24237C7.63362 8.24237 7.34242 8.26318 7.11362 8.30478C7.42562 7.13998 7.75842 5.62157 8.11202 3.52077ZM5.72 3.54157C5.304 6.32877 4.3056 10.0104 3.2656 12.2152C1.6432 12.3608 0.9152 12.5688 0.9152 13.3592C0.9152 14.6488 1.7472 15.46 2.2672 15.46C2.7664 15.46 3.2032 15.1688 4.0768 14.4616C6.136 15.8136 7.42562 16.2088 8.88162 16.2088C11.8976 16.2088 13.3536 14.6072 13.3536 12.4024C13.3536 11.4872 12.8752 9.94798 10.816 8.86637C12.3968 7.32718 13.312 5.60078 13.312 4.26958C13.312 1.89838 11.6064 0.234375 7.52962 0.234375C3.0576 0.234375 0 2.43917 0 4.76877C0 5.51757 0.3328 5.99598 0.8944 5.99598C1.0608 5.99598 1.248 5.95438 1.3728 5.89198C2.1424 4.35278 3.9104 3.77037 5.72 3.54157ZM9.38082 13.7544C8.59042 13.7544 6.94722 13.2344 5.304 12.6728C5.9488 11.7576 6.38562 10.78 6.67682 9.76077C9.40162 10.9256 10.3168 11.7992 10.3168 12.8808C10.3168 13.4216 9.90082 13.7544 9.38082 13.7544ZM29.5241 6.70317C29.1289 6.70317 28.7961 6.82797 28.5049 7.18157C28.4841 6.78637 28.1929 6.30797 27.5273 6.30797C26.8201 6.30797 25.8841 6.80718 24.6985 7.74318C24.0537 7.84718 22.9929 7.99277 22.2233 8.09678C22.2233 6.97358 21.8281 6.49517 21.1209 6.49517C20.6841 6.49517 20.2681 6.70317 19.9353 7.18157C19.9145 6.51597 19.2905 6.26637 18.7705 6.26637C16.5657 6.26637 14.3193 9.34478 14.3193 12.7976C14.3193 14.836 15.4841 15.8136 16.9609 15.8136C19.5609 15.8136 21.3705 12.5688 21.9321 9.92718C21.9321 9.92718 22.6393 9.86477 23.4713 9.78157C23.0969 10.6968 22.8889 11.7368 22.8889 12.7976C22.8889 14.836 24.0537 15.8136 25.5305 15.8136C26.9865 15.8136 28.0889 15.0648 29.0873 13.7128C29.3161 13.8584 29.5449 13.9208 29.9193 13.9208C31.6873 13.9208 33.0809 11.9656 33.0809 11.092C33.0809 10.6552 32.6441 10.3432 32.2697 10.3432C31.5833 11.4456 30.9801 11.924 30.3769 11.924C30.1689 11.924 30.0233 11.8408 29.9609 11.7784C30.4185 10.6344 30.7929 9.09517 30.7929 8.09678C30.7929 7.28557 30.3769 6.70317 29.5241 6.70317ZM17.2729 12.1736C17.2729 10.5512 18.3129 8.34637 19.5401 7.80557C19.2905 8.20077 19.2073 8.59597 19.2073 8.92877C19.2073 9.42797 19.4153 9.82318 19.7065 9.92718C19.4361 11.6744 18.7705 13.4424 18.0009 13.4424C17.6681 13.4424 17.2729 13.1512 17.2729 12.1736ZM25.8425 12.028C25.8425 11.1128 26.0921 9.92717 26.5705 9.13677C27.1113 8.92877 27.6729 8.57517 27.9849 8.15917C27.6937 8.88717 27.4649 9.92717 27.4649 10.572C27.4649 11.2168 27.5689 12.0072 27.7977 12.4856C27.5065 12.9432 27.0905 13.3384 26.5913 13.3384C26.2169 13.3384 25.8425 13.0472 25.8425 12.028ZM32.1287 11.3208C31.6087 12.2152 31.4423 12.964 31.4423 13.6088C31.4631 14.6904 32.3575 15.7928 33.5639 15.7928C34.0423 15.7928 34.4375 15.6472 34.6663 15.3976C34.6871 13.6296 34.7287 12.7352 34.8119 11.7992L35.7479 11.4248C35.6855 11.8824 35.6439 12.4232 35.6439 12.9432C35.6439 15.2728 36.1639 16.1672 37.4951 16.1672C39.4087 16.1672 42.6119 12.2776 42.6119 11.0712C42.6119 10.6552 42.1959 10.4264 41.8007 10.4264C40.3447 12.5272 39.5127 13.4216 38.9719 13.4216C38.4727 13.4216 38.2647 12.652 38.2647 10.4056C40.4071 9.34478 40.6567 9.13678 40.6567 8.17998C40.6567 7.38958 40.1783 6.55758 39.1591 6.55758C38.5975 6.55758 37.9943 6.97357 37.0583 8.26317C36.7879 8.63757 36.5383 9.09517 36.3303 9.53197L34.9367 10.1144C35.0615 9.21997 35.5191 7.86797 35.9767 6.95277C37.4951 3.99917 37.9527 2.83438 37.9527 1.91918C37.9527 0.858375 37.3911 0.442375 36.4967 0.442375C33.8967 0.442375 33.0023 3.54157 32.1287 11.3208ZM41.7776 9.65677C41.6112 10.5304 40.9456 12.9432 40.9456 14.3368C40.9456 15.4184 41.3824 15.9384 42.5888 15.9384C44.6896 15.9384 48.0592 12.6728 48.0592 11.092C48.0592 10.676 47.664 10.3848 47.2688 10.3848C46.1872 12.0696 44.96 13.2552 44.3152 13.2552C44.128 13.2552 44.024 13.172 44.024 12.9432C44.024 12.4232 45.0016 8.80398 45.5632 6.78638C47.1232 3.85357 47.5392 2.83438 47.5392 1.91918C47.5392 0.858375 46.9776 0.442375 46.0832 0.442375C44.44 0.442375 42.9632 2.12717 42.5888 4.93517C42.4016 6.34958 42.0272 8.30477 41.7776 9.65677ZM50.9039 8.86637C50.9039 9.49037 50.6543 10.1352 49.4895 10.3432C49.6351 8.88717 50.1967 8.17998 50.4879 8.17998C50.7375 8.17998 50.9039 8.42957 50.9039 8.86637ZM49.4063 15.8552C52.1103 15.8552 55.5839 12.548 55.5839 11.0088C55.5839 10.676 55.2927 10.3432 54.7935 10.3224C53.6079 12.132 51.7775 13.3384 50.3631 13.3384C49.5519 13.3384 49.3647 12.8184 49.3647 11.8824C52.2143 11.2376 53.2335 9.88557 53.2335 8.13837C53.2335 6.68237 52.4431 5.99598 51.0079 5.99598C48.9903 5.99598 46.4319 9.19917 46.4319 12.34C46.4319 14.5864 47.3679 15.8552 49.4063 15.8552ZM59.1901 7.72237C58.8365 7.61837 58.4413 7.47277 58.2125 7.34797C58.4829 6.89037 58.9197 6.57837 59.4189 6.30797C59.4605 6.18317 59.4813 6.03758 59.4813 5.89198C59.4813 5.33038 59.0029 4.99757 58.2957 4.99757C57.1309 4.99757 54.9469 7.05678 54.9469 8.51278C54.9469 8.90798 55.0925 9.17837 55.2589 9.36557C54.9053 10.2184 54.5101 10.7384 53.9693 11.508C53.8653 11.6536 53.8237 11.8408 53.8237 12.0072C53.8237 12.444 54.1357 12.8184 54.6557 12.8184C55.3421 12.0488 55.8205 11.3208 56.4653 10.0936C56.9229 10.2808 57.1517 10.4056 57.1517 10.6552C57.1517 11.196 56.1325 12.964 56.1325 14.3368C56.1325 15.5224 56.8397 16.084 58.1085 16.084C60.0221 16.084 63.5789 12.3816 63.5789 11.0712C63.5789 10.7592 63.2253 10.4264 62.7053 10.4264C61.6029 12.1528 60.1469 13.4424 59.5645 13.4424C59.2941 13.4424 59.2109 13.2344 59.2109 12.9432C59.2109 12.4232 59.6269 11.404 60.1053 10.4472C60.4381 9.78157 60.6669 9.28238 60.6669 8.86637C60.6669 8.36718 60.4173 8.07597 59.1901 7.72237Z" fill="white"/>
<path opacity="0.1" fill-rule="evenodd" clip-rule="evenodd" d="M17.2305 9.56888C17.2305 9.56888 40.4594 -10.842 60.4529 7.95628C46.904 7.71878 38.6502 9.62028 32.9628 14.2709C31.5296 15.4429 29.0946 15.5151 28.0926 16.6917C25.5588 16.602 26.8446 17.3853 25.1628 16.7152C23.7321 16.1452 22.622 12.3549 20.3981 12.3581C18.8578 12.3603 17.2305 9.56888 17.2305 9.56888Z" fill="white"/>
</svg>
